<svg xmlns="http://www.w3.org/2000/svg" xmlns:xlink="http://www.w3.org/1999/xlink" width="250" zoomAndPan="magnify" viewBox="0 0 187.5 112.499997" height="150" preserveAspectRatio="xMidYMid meet" version="1.0"><defs><g/><clipPath id="bcf811b485"><path d="M 0.164062 0 L 186.835938 0 L 186.835938 112.003906 L 0.164062 112.003906 Z M 0.164062 0 " clip-rule="nonzero"/></clipPath><clipPath id="3c169d5cd3"><path d="M 6.449219 31 L 83 31 L 83 92.375 L 6.449219 92.375 Z M 6.449219 31 " clip-rule="nonzero"/></clipPath><clipPath id="32a0978d80"><path d="M 34 16.761719 L 50 16.761719 L 50 31 L 34 31 Z M 34 16.761719 " clip-rule="nonzero"/></clipPath><clipPath id="55912ad78e"><path d="M 21.59375 62.875 L 38.816406 62.875 L 38.816406 80.09375 L 21.59375 80.09375 Z M 21.59375 62.875 " clip-rule="nonzero"/></clipPath><clipPath id="d513e2aab8"><path d="M 151.464844 33.328125 L 176 33.328125 L 176 71.507812 L 151.464844 71.507812 Z M 151.464844 33.328125 " clip-rule="nonzero"/></clipPath></defs><g clip-path="url(#bcf811b485)"><path fill="#ffffff" d="M 0.164062 0 L 187.335938 0 L 187.335938 119.039062 L 0.164062 119.039062 Z M 0.164062 0 " fill-opacity="1" fill-rule="nonzero"/><path fill="#ffffff" d="M 0.164062 0 L 187.335938 0 L 187.335938 112.300781 L 0.164062 112.300781 Z M 0.164062 0 " fill-opacity="1" fill-rule="nonzero"/><path fill="#ffffff" d="M 0.164062 0 L 187.335938 0 L 187.335938 112.300781 L 0.164062 112.300781 Z M 0.164062 0 " fill-opacity="1" fill-rule="nonzero"/></g><g clip-path="url(#3c169d5cd3)"><path fill="#ff893e" d="M 24.101562 82.21875 L 34.292969 82.21875 C 34.292969 85.050781 32.011719 87.347656 29.195312 87.347656 C 26.378906 87.347656 24.101562 85.050781 24.101562 82.21875 Z M 72.40625 77.09375 C 75.222656 77.09375 77.507812 79.386719 77.507812 82.21875 C 77.507812 85.050781 75.222656 87.347656 72.40625 87.347656 C 69.597656 87.347656 67.3125 85.050781 67.3125 82.21875 C 67.3125 81.179688 67.628906 80.160156 68.214844 79.304688 L 70.882812 82.714844 C 71.378906 83.394531 72.230469 83.691406 72.960938 83.269531 C 73.6875 82.84375 73.824219 81.96875 73.515625 81.183594 L 71.480469 77.179688 C 71.789062 77.125 72.097656 77.09375 72.40625 77.09375 Z M 19.886719 42.816406 C 20.105469 42.835938 20.371094 42.976562 20.675781 43.191406 C 23.414062 45.082031 24.269531 50.425781 21.855469 52.847656 C 21.507812 53.203125 21.355469 53.417969 21.355469 54.023438 L 21.355469 59.738281 C 21.355469 60.8125 19.308594 60.8125 19.308594 59.734375 L 19.304688 52.511719 L 19.304688 43.980469 C 19.304688 43.085938 19.527344 42.785156 19.886719 42.816406 Z M 14.085938 42.816406 C 14.339844 42.808594 14.597656 43.035156 14.621094 43.472656 L 14.800781 47.796875 C 14.78125 48.429688 15.722656 48.429688 15.703125 47.796875 L 15.703125 43.609375 C 15.703125 43.070312 15.996094 42.917969 16.410156 43.425781 C 17.085938 44.246094 17.457031 46.097656 17.457031 47.417969 C 17.457031 49.183594 16.75 50.785156 15.621094 51.542969 C 15.207031 51.816406 15.121094 51.910156 15.121094 52.515625 L 15.121094 59.734375 C 15.121094 60.8125 13.058594 60.8125 13.058594 59.734375 L 13.058594 52.515625 C 13.039062 51.9375 13.042969 51.84375 12.550781 51.535156 C 11.402344 50.820312 10.71875 49.183594 10.71875 47.417969 C 10.71875 46.101562 11.09375 44.246094 11.761719 43.425781 C 12.183594 42.917969 12.476562 43.070312 12.476562 43.609375 L 12.476562 47.796875 C 12.449219 48.429688 13.398438 48.429688 13.378906 47.796875 L 13.558594 43.503906 C 13.578125 43.042969 13.835938 42.816406 14.085938 42.816406 Z M 38.425781 31.753906 C 36.699219 31.796875 35.039062 32.691406 34.59375 34.257812 L 29.714844 51.265625 C 28.960938 53.910156 29.816406 57.449219 33.804688 57.449219 L 46.273438 57.449219 L 49.007812 72.023438 C 49.488281 74.585938 54.351562 74.628906 54.152344 72.015625 L 52.921875 55.539062 C 52.726562 52.898438 51.660156 51.910156 49.757812 51.652344 L 40.214844 50.195312 L 41.179688 42.03125 L 45.660156 45.4375 C 46.59375 46.152344 47.03125 46.265625 48.101562 46.453125 L 53.558594 47.425781 C 54.136719 47.53125 54.394531 47.773438 54.78125 48.722656 L 62.910156 68.738281 C 64.753906 73.277344 63.3125 76.359375 57.433594 76.359375 L 46.945312 76.359375 C 42.410156 76.359375 39.988281 72.488281 41.464844 69.136719 L 43.625 64.257812 C 44.601562 62.042969 43.4375 59.722656 41.085938 59.722656 L 27.296875 59.722656 L 27.296875 38.425781 C 27.296875 35.328125 25.664062 34.414062 22.9375 34.414062 L 17.085938 34.414062 C 11.421875 34.414062 6.871094 38.996094 6.871094 44.691406 L 6.871094 61.519531 C 6.871094 63.34375 8.222656 64.816406 9.898438 64.816406 L 20.914062 64.816406 C 15.917969 67.972656 12.75 74.148438 13.285156 79.582031 C 13.519531 81.9375 14.875 82.21875 15.878906 82.21875 L 19.117188 82.21875 C 19.117188 87.816406 23.628906 92.359375 29.191406 92.359375 C 34.757812 92.359375 39.277344 87.816406 39.277344 82.21875 L 62.328125 82.21875 C 62.328125 87.816406 66.839844 92.359375 72.40625 92.359375 C 77.976562 92.359375 82.488281 87.816406 82.488281 82.21875 C 82.484375 80.441406 82.019531 78.695312 81.132812 77.15625 L 81.75 77.25 C 82.882812 77.425781 83.179688 76.03125 82.617188 74.800781 C 80.757812 70.726562 76.808594 68.050781 72.425781 67.832031 C 72 67.8125 71.609375 67.5625 71.609375 67.039062 L 71.609375 66.230469 C 71.609375 65.238281 71.617188 64.441406 70.839844 63.375 L 59.921875 48.078125 C 59.371094 47.121094 59.511719 46.585938 60.46875 46.585938 L 62.3125 46.585938 C 63.554688 46.585938 64.453125 46.324219 64.277344 44.875 L 63.730469 41.230469 C 63.589844 40.09375 63.113281 39.320312 61.480469 39.320312 L 58.59375 39.320312 C 55.519531 39.320312 54.273438 41.464844 53.453125 42.585938 C 53.296875 42.796875 53.175781 42.972656 53.066406 43.136719 L 48.664062 41.730469 L 42.035156 33.300781 C 41.152344 32.207031 39.769531 31.726562 38.425781 31.753906 Z M 38.425781 31.753906 " fill-opacity="1" fill-rule="evenodd"/></g><g clip-path="url(#32a0978d80)"><path fill="#ff893e" d="M 41.390625 16.976562 C 38.472656 16.789062 35.765625 18.527344 34.703125 21.265625 C 33.644531 24.015625 34.457031 27.15625 36.761719 28.96875 C 38.058594 29.988281 39.609375 30.707031 40.96875 30.714844 C 44.269531 30.726562 46.957031 28.015625 46.984375 24.699219 L 45.269531 24.800781 C 45.191406 27.144531 43.3125 29.003906 40.96875 29.003906 C 40.695312 29.003906 40.433594 28.980469 40.175781 28.929688 C 40.449219 28.546875 40.644531 28.046875 40.78125 27.472656 C 41.605469 24.007812 44.066406 23.957031 46.355469 23.789062 C 47.019531 23.738281 47.910156 23.738281 48.699219 23.738281 C 50.054688 23.738281 50.101562 22.015625 48.9375 21.785156 L 47.378906 21.511719 C 46.945312 20.328125 46.207031 19.3125 45.203125 18.476562 C 44.195312 17.640625 42.855469 17.074219 41.390625 16.976562 Z M 41.390625 16.976562 " fill-opacity="1" fill-rule="evenodd"/></g><g clip-path="url(#55912ad78e)"><path fill="#ffffff" d="M 21.554688 71.445312 C 21.554688 66.691406 25.410156 62.835938 30.164062 62.835938 C 34.921875 62.835938 38.773438 66.691406 38.773438 71.445312 C 38.773438 76.199219 34.921875 80.054688 30.164062 80.054688 C 25.410156 80.054688 21.554688 76.199219 21.554688 71.445312 Z M 26.359375 71.445312 C 26.359375 70.007812 27.527344 68.84375 28.964844 68.84375 C 29.296875 68.84375 29.5625 68.574219 29.5625 68.242188 C 29.5625 67.910156 29.296875 67.640625 28.964844 67.640625 C 26.863281 67.640625 25.160156 69.34375 25.160156 71.445312 C 25.160156 73.546875 26.863281 75.25 28.964844 75.25 C 29.296875 75.25 29.5625 74.980469 29.5625 74.648438 C 29.5625 74.316406 29.296875 74.046875 28.964844 74.046875 C 27.527344 74.046875 26.359375 72.882812 26.359375 71.445312 Z M 30.765625 71.445312 C 30.765625 69.34375 32.46875 67.640625 34.570312 67.640625 C 34.902344 67.640625 35.171875 67.910156 35.171875 68.242188 C 35.171875 68.574219 34.902344 68.84375 34.570312 68.84375 C 33.339844 68.84375 32.308594 69.695312 32.035156 70.84375 L 33.769531 70.84375 C 34.101562 70.84375 34.371094 71.113281 34.371094 71.445312 C 34.371094 71.777344 34.101562 72.046875 33.769531 72.046875 L 32.035156 72.046875 C 32.308594 73.195312 33.339844 74.046875 34.570312 74.046875 C 34.902344 74.046875 35.171875 74.316406 35.171875 74.648438 C 35.171875 74.980469 34.902344 75.25 34.570312 75.25 C 32.46875 75.25 30.765625 73.546875 30.765625 71.445312 Z M 30.765625 71.445312 " fill-opacity="1" fill-rule="evenodd"/></g><g clip-path="url(#d513e2aab8)"><path fill="#ff893e" d="M 163.820312 33.328125 C 163.042969 33.328125 162.273438 33.40625 161.515625 33.554688 C 160.753906 33.707031 160.015625 33.933594 159.296875 34.230469 C 158.582031 34.527344 157.902344 34.890625 157.257812 35.320312 C 156.609375 35.75 156.015625 36.238281 155.464844 36.785156 C 154.917969 37.332031 154.425781 37.929688 153.996094 38.570312 C 153.566406 39.214844 153.199219 39.894531 152.902344 40.609375 C 152.605469 41.324219 152.378906 42.058594 152.226562 42.820312 C 152.074219 43.578125 152 44.34375 151.996094 45.117188 C 151.996094 49.046875 155.984375 55.628906 159.179688 60.277344 L 156.183594 60.277344 L 153.371094 71.507812 L 174.265625 71.507812 L 171.453125 60.277344 L 168.457031 60.277344 C 171.65625 55.628906 175.640625 49.046875 175.640625 45.117188 C 175.636719 44.34375 175.5625 43.578125 175.410156 42.820312 C 175.257812 42.058594 175.03125 41.324219 174.734375 40.609375 C 174.4375 39.894531 174.070312 39.214844 173.640625 38.570312 C 173.210938 37.929688 172.71875 37.332031 172.171875 36.785156 C 171.621094 36.238281 171.027344 35.75 170.382812 35.320312 C 169.734375 34.890625 169.054688 34.527344 168.339844 34.230469 C 167.621094 33.933594 166.882812 33.707031 166.125 33.554688 C 165.363281 33.40625 164.59375 33.328125 163.820312 33.328125 Z M 169.695312 62.523438 L 171.382812 69.261719 L 156.253906 69.261719 L 157.941406 62.523438 L 160.734375 62.523438 C 161.8125 64.03125 162.648438 65.109375 162.984375 65.46875 L 163.886719 66.613281 L 164.785156 65.46875 C 165.058594 65.109375 165.890625 64.03125 167.039062 62.523438 Z M 163.820312 62.90625 C 160.507812 58.460938 154.25 49.226562 154.25 45.117188 C 154.25 44.492188 154.308594 43.871094 154.433594 43.253906 C 154.554688 42.640625 154.738281 42.042969 154.976562 41.464844 C 155.21875 40.886719 155.511719 40.335938 155.863281 39.816406 C 156.210938 39.292969 156.605469 38.8125 157.050781 38.367188 C 157.496094 37.925781 157.980469 37.53125 158.5 37.179688 C 159.023438 36.832031 159.574219 36.539062 160.15625 36.300781 C 160.738281 36.058594 161.335938 35.878906 161.953125 35.753906 C 162.566406 35.632812 163.191406 35.574219 163.820312 35.574219 C 164.445312 35.574219 165.070312 35.632812 165.683594 35.753906 C 166.300781 35.878906 166.898438 36.058594 167.480469 36.300781 C 168.0625 36.539062 168.613281 36.832031 169.136719 37.179688 C 169.65625 37.53125 170.140625 37.925781 170.585938 38.367188 C 171.03125 38.8125 171.425781 39.292969 171.777344 39.816406 C 172.125 40.335938 172.417969 40.886719 172.660156 41.464844 C 172.898438 42.042969 173.082031 42.640625 173.203125 43.253906 C 173.328125 43.871094 173.386719 44.492188 173.386719 45.117188 C 173.386719 49.226562 167.128906 58.460938 163.820312 62.90625 Z M 163.820312 62.90625 " fill-opacity="1" fill-rule="nonzero"/></g><path fill="#ff893e" d="M 163.820312 41.1875 C 163.523438 41.1875 163.230469 41.214844 162.941406 41.273438 C 162.648438 41.332031 162.367188 41.417969 162.09375 41.53125 C 161.820312 41.640625 161.5625 41.78125 161.316406 41.945312 C 161.070312 42.109375 160.84375 42.292969 160.632812 42.503906 C 160.425781 42.710938 160.238281 42.9375 160.074219 43.183594 C 159.910156 43.429688 159.769531 43.6875 159.65625 43.960938 C 159.542969 44.234375 159.460938 44.515625 159.402344 44.804688 C 159.34375 45.09375 159.316406 45.382812 159.316406 45.679688 C 159.316406 45.972656 159.34375 46.265625 159.402344 46.554688 C 159.460938 46.84375 159.542969 47.125 159.65625 47.398438 C 159.769531 47.671875 159.910156 47.929688 160.074219 48.175781 C 160.238281 48.421875 160.425781 48.648438 160.632812 48.855469 C 160.84375 49.0625 161.070312 49.25 161.316406 49.414062 C 161.5625 49.578125 161.820312 49.714844 162.09375 49.828125 C 162.367188 49.941406 162.648438 50.027344 162.941406 50.085938 C 163.230469 50.144531 163.523438 50.171875 163.820312 50.171875 C 164.113281 50.171875 164.40625 50.144531 164.695312 50.085938 C 164.988281 50.027344 165.269531 49.941406 165.542969 49.828125 C 165.816406 49.714844 166.074219 49.578125 166.320312 49.414062 C 166.566406 49.25 166.792969 49.0625 167.003906 48.855469 C 167.210938 48.648438 167.398438 48.421875 167.5625 48.175781 C 167.726562 47.929688 167.867188 47.671875 167.980469 47.398438 C 168.09375 47.125 168.175781 46.84375 168.234375 46.554688 C 168.292969 46.265625 168.320312 45.972656 168.320312 45.679688 C 168.320312 45.382812 168.292969 45.09375 168.234375 44.804688 C 168.175781 44.515625 168.09375 44.234375 167.980469 43.960938 C 167.867188 43.6875 167.726562 43.429688 167.5625 43.183594 C 167.398438 42.9375 167.210938 42.710938 167.003906 42.503906 C 166.792969 42.292969 166.566406 42.109375 166.320312 41.945312 C 166.074219 41.78125 165.816406 41.640625 165.542969 41.53125 C 165.269531 41.417969 164.988281 41.332031 164.695312 41.273438 C 164.40625 41.214844 164.113281 41.1875 163.820312 41.1875 Z M 163.820312 47.925781 C 163.519531 47.925781 163.234375 47.867188 162.957031 47.753906 C 162.679688 47.640625 162.4375 47.476562 162.226562 47.269531 C 162.015625 47.058594 161.851562 46.8125 161.738281 46.539062 C 161.625 46.265625 161.566406 45.976562 161.566406 45.679688 C 161.566406 45.382812 161.625 45.09375 161.738281 44.820312 C 161.851562 44.542969 162.015625 44.300781 162.226562 44.089844 C 162.4375 43.878906 162.679688 43.71875 162.957031 43.605469 C 163.234375 43.492188 163.519531 43.433594 163.820312 43.433594 C 164.117188 43.433594 164.40625 43.492188 164.679688 43.605469 C 164.957031 43.71875 165.199219 43.878906 165.410156 44.089844 C 165.621094 44.300781 165.785156 44.542969 165.898438 44.820312 C 166.011719 45.09375 166.070312 45.382812 166.070312 45.679688 C 166.070312 45.976562 166.011719 46.265625 165.898438 46.539062 C 165.785156 46.8125 165.621094 47.058594 165.410156 47.269531 C 165.199219 47.476562 164.957031 47.640625 164.679688 47.753906 C 164.40625 47.867188 164.117188 47.925781 163.820312 47.925781 Z M 163.820312 47.925781 " fill-opacity="1" fill-rule="nonzero"/><g fill="#ff893e" fill-opacity="0.4"><g transform="translate(88.356088, 74.340174)"><g><path d="M 1.410156 -0.558594 L 1.601562 -0.191406 L 2.027344 0 L 3.378906 0.0585938 L 4.34375 -0.0195312 L 4.746094 -0.191406 L 4.980469 -0.773438 L 4.921875 -1.390625 L 4.960938 -1.757812 L 4.941406 -3.800781 L 5.113281 -4.1875 L 5.5 -4.363281 L 5.925781 -4.402344 L 6.332031 -4.324219 L 6.714844 -4.402344 L 7.101562 -4.363281 L 7.507812 -4.382812 L 7.894531 -4.34375 L 8.683594 -4.382812 L 9.089844 -4.574219 L 9.285156 -5.171875 L 9.265625 -6.890625 L 9.070312 -7.277344 L 8.667969 -7.429688 L 7.71875 -7.46875 L 6.699219 -7.390625 L 5.945312 -7.488281 L 5.519531 -7.46875 L 5.132812 -7.625 L 4.921875 -8.027344 L 4.921875 -8.570312 L 4.960938 -8.9375 L 4.921875 -9.804688 L 5.113281 -10.191406 L 5.480469 -10.441406 L 6.097656 -10.441406 L 6.660156 -10.402344 L 7.007812 -10.421875 L 7.390625 -10.402344 L 7.796875 -10.441406 L 9.265625 -10.402344 L 9.648438 -10.597656 L 9.84375 -10.980469 L 9.804688 -11.964844 L 9.84375 -12.699219 L 9.613281 -13.277344 L 9.285156 -13.492188 L 8.125 -13.472656 L 7.699219 -13.53125 L 6.949219 -13.492188 L 6.601562 -13.53125 L 6.023438 -13.492188 L 5.636719 -13.511719 L 5.039062 -13.472656 L 4.285156 -13.472656 L 3.9375 -13.511719 L 2.953125 -13.511719 L 2.546875 -13.472656 L 2.007812 -13.492188 L 1.582031 -13.277344 L 1.46875 -12.929688 L 1.410156 -12.140625 L 1.46875 -11.5625 L 1.390625 -9.398438 L 1.429688 -9.070312 L 1.449219 -8.667969 L 1.410156 -8.320312 L 1.449219 -7.875 L 1.410156 -7.527344 L 1.390625 -7.160156 L 1.429688 -6.792969 L 1.390625 -6.351562 Z M 1.410156 -0.558594 "/></g></g></g><g fill="#ff893e" fill-opacity="0.4"><g transform="translate(98.869158, 74.340174)"><g><path d="M 7.738281 0.25 L 9.457031 0.078125 L 10.191406 -0.15625 L 11.910156 -0.925781 L 13.257812 -2.21875 L 13.511719 -2.566406 L 14.261719 -3.898438 L 14.398438 -4.265625 L 14.457031 -4.652344 L 14.570312 -4.960938 L 14.648438 -5.386719 L 14.746094 -6.734375 L 14.648438 -8.066406 L 14.496094 -8.78125 L 14.339844 -9.1875 L 14.242188 -9.632812 L 13.898438 -10.269531 L 13.761719 -10.617188 L 13.511719 -10.945312 L 13.277344 -11.175781 L 13.027344 -11.523438 L 12.199219 -12.273438 L 11.214844 -12.894531 L 8.683594 -13.683594 L 7.777344 -13.703125 L 6.425781 -13.625 L 6.042969 -13.550781 L 5.65625 -13.433594 L 5.308594 -13.277344 L 4.574219 -13.085938 L 3.589844 -12.46875 L 3.320312 -12.238281 L 2.703125 -11.8125 L 2.179688 -11.234375 L 1.523438 -10.269531 L 1.351562 -9.941406 L 0.984375 -8.878906 L 0.828125 -8.046875 L 0.753906 -5.808594 L 0.964844 -4.59375 L 1.253906 -3.9375 L 1.371094 -3.53125 L 1.5625 -3.183594 L 2.46875 -1.949219 L 3.011719 -1.429688 L 3.261719 -1.140625 L 4.574219 -0.445312 L 4.941406 -0.289062 L 6.582031 0.191406 Z M 7.199219 -3.144531 L 6.8125 -3.28125 L 6.464844 -3.320312 L 5.808594 -3.667969 L 5.210938 -4.1875 L 5.019531 -4.457031 L 4.765625 -4.730469 L 4.402344 -5.808594 L 4.304688 -6.773438 L 4.324219 -7.355469 L 4.457031 -8.066406 L 4.574219 -8.414062 L 4.804688 -8.683594 L 4.980469 -9.011719 L 5.230469 -9.324219 L 5.519531 -9.574219 L 6.078125 -9.960938 L 6.425781 -10.132812 L 6.832031 -10.230469 L 7.71875 -10.304688 L 8.648438 -10.25 L 9.667969 -9.804688 L 10.269531 -9.359375 L 10.710938 -8.703125 L 10.867188 -8.355469 L 10.980469 -7.972656 L 11.117188 -7.625 L 11.195312 -6.792969 L 11.078125 -5.828125 L 10.90625 -5.039062 L 10.691406 -4.746094 L 10.519531 -4.457031 L 10.289062 -4.109375 L 9.6875 -3.648438 L 9.339844 -3.492188 L 9.03125 -3.320312 L 8.683594 -3.28125 L 8.320312 -3.183594 Z M 7.199219 -3.144531 "/></g></g></g><g fill="#ff893e" fill-opacity="0.4"><g transform="translate(114.339773, 74.340174)"><g><path d="M 7.738281 0.25 L 9.457031 0.078125 L 10.191406 -0.15625 L 11.910156 -0.925781 L 13.257812 -2.21875 L 13.511719 -2.566406 L 14.261719 -3.898438 L 14.398438 -4.265625 L 14.457031 -4.652344 L 14.570312 -4.960938 L 14.648438 -5.386719 L 14.746094 -6.734375 L 14.648438 -8.066406 L 14.496094 -8.78125 L 14.339844 -9.1875 L 14.242188 -9.632812 L 13.898438 -10.269531 L 13.761719 -10.617188 L 13.511719 -10.945312 L 13.277344 -11.175781 L 13.027344 -11.523438 L 12.199219 -12.273438 L 11.214844 -12.894531 L 8.683594 -13.683594 L 7.777344 -13.703125 L 6.425781 -13.625 L 6.042969 -13.550781 L 5.65625 -13.433594 L 5.308594 -13.277344 L 4.574219 -13.085938 L 3.589844 -12.46875 L 3.320312 -12.238281 L 2.703125 -11.8125 L 2.179688 -11.234375 L 1.523438 -10.269531 L 1.351562 -9.941406 L 0.984375 -8.878906 L 0.828125 -8.046875 L 0.753906 -5.808594 L 0.964844 -4.59375 L 1.253906 -3.9375 L 1.371094 -3.53125 L 1.5625 -3.183594 L 2.46875 -1.949219 L 3.011719 -1.429688 L 3.261719 -1.140625 L 4.574219 -0.445312 L 4.941406 -0.289062 L 6.582031 0.191406 Z M 7.199219 -3.144531 L 6.8125 -3.28125 L 6.464844 -3.320312 L 5.808594 -3.667969 L 5.210938 -4.1875 L 5.019531 -4.457031 L 4.765625 -4.730469 L 4.402344 -5.808594 L 4.304688 -6.773438 L 4.324219 -7.355469 L 4.457031 -8.066406 L 4.574219 -8.414062 L 4.804688 -8.683594 L 4.980469 -9.011719 L 5.230469 -9.324219 L 5.519531 -9.574219 L 6.078125 -9.960938 L 6.425781 -10.132812 L 6.832031 -10.230469 L 7.71875 -10.304688 L 8.648438 -10.25 L 9.667969 -9.804688 L 10.269531 -9.359375 L 10.710938 -8.703125 L 10.867188 -8.355469 L 10.980469 -7.972656 L 11.117188 -7.625 L 11.195312 -6.792969 L 11.078125 -5.828125 L 10.90625 -5.039062 L 10.691406 -4.746094 L 10.519531 -4.457031 L 10.289062 -4.109375 L 9.6875 -3.648438 L 9.339844 -3.492188 L 9.03125 -3.320312 L 8.683594 -3.28125 L 8.320312 -3.183594 Z M 7.199219 -3.144531 "/></g></g></g><g fill="#ff893e" fill-opacity="0.4"><g transform="translate(129.810389, 74.340174)"><g><path d="M 5.945312 0.0585938 L 6.523438 0.0585938 L 7.121094 -0.0195312 L 7.507812 -0.0195312 L 8.066406 -0.191406 L 8.859375 -0.328125 L 9.765625 -0.714844 L 11.058594 -1.582031 L 12.003906 -2.796875 L 12.199219 -3.183594 L 12.429688 -3.492188 L 12.738281 -4.246094 L 12.835938 -4.613281 L 12.914062 -5.019531 L 13.027344 -5.347656 L 13.085938 -5.730469 L 13.085938 -6.136719 L 13.144531 -6.753906 L 13.125 -7.316406 L 12.855469 -8.839844 L 12.601562 -9.574219 L 12.449219 -9.941406 L 11.792969 -10.960938 L 10.769531 -12.101562 L 9.785156 -12.757812 L 9.417969 -12.96875 L 9.03125 -13.046875 L 8.703125 -13.203125 L 8.300781 -13.296875 L 7.160156 -13.472656 L 2.761719 -13.511719 L 2.414062 -13.453125 L 2.027344 -13.472656 L 1.601562 -13.296875 L 1.429688 -12.894531 L 1.410156 -2.105469 L 1.449219 -1.738281 L 1.449219 -0.753906 L 1.640625 -0.15625 L 2.027344 0.0390625 L 2.414062 0 L 4.765625 0.0390625 L 5.152344 -0.0195312 Z M 5.886719 -3.109375 L 5.519531 -3.144531 L 5.074219 -3.359375 L 4.921875 -3.726562 L 4.902344 -4.054688 L 4.921875 -4.84375 L 4.84375 -5.789062 L 4.921875 -6.753906 L 4.882812 -9.417969 L 4.921875 -9.746094 L 5.113281 -10.191406 L 5.730469 -10.324219 L 6.542969 -10.34375 L 7.101562 -10.289062 L 7.855469 -10.074219 L 8.203125 -9.902344 L 8.492188 -9.6875 L 8.78125 -9.417969 L 9.070312 -9.070312 L 9.265625 -8.742188 L 9.4375 -8.394531 L 9.746094 -6.699219 L 9.554688 -5.347656 L 9.226562 -4.632812 L 8.511719 -3.820312 L 7.855469 -3.398438 L 7.296875 -3.222656 L 6.464844 -3.125 Z M 5.886719 -3.109375 "/></g></g></g><g fill="#ff893e" fill-opacity="1"><g transform="translate(87.503019, 73.487101)"><g><path d="M 1.410156 -0.558594 L 1.601562 -0.191406 L 2.027344 0 L 3.378906 0.0585938 L 4.34375 -0.0195312 L 4.746094 -0.191406 L 4.980469 -0.773438 L 4.921875 -1.390625 L 4.960938 -1.757812 L 4.941406 -3.800781 L 5.113281 -4.1875 L 5.5 -4.363281 L 5.925781 -4.402344 L 6.332031 -4.324219 L 6.714844 -4.402344 L 7.101562 -4.363281 L 7.507812 -4.382812 L 7.894531 -4.34375 L 8.683594 -4.382812 L 9.089844 -4.574219 L 9.285156 -5.171875 L 9.265625 -6.890625 L 9.070312 -7.277344 L 8.667969 -7.429688 L 7.71875 -7.46875 L 6.699219 -7.390625 L 5.945312 -7.488281 L 5.519531 -7.46875 L 5.132812 -7.625 L 4.921875 -8.027344 L 4.921875 -8.570312 L 4.960938 -8.9375 L 4.921875 -9.804688 L 5.113281 -10.191406 L 5.480469 -10.441406 L 6.097656 -10.441406 L 6.660156 -10.402344 L 7.007812 -10.421875 L 7.390625 -10.402344 L 7.796875 -10.441406 L 9.265625 -10.402344 L 9.648438 -10.597656 L 9.84375 -10.980469 L 9.804688 -11.964844 L 9.84375 -12.699219 L 9.613281 -13.277344 L 9.285156 -13.492188 L 8.125 -13.472656 L 7.699219 -13.53125 L 6.949219 -13.492188 L 6.601562 -13.53125 L 6.023438 -13.492188 L 5.636719 -13.511719 L 5.039062 -13.472656 L 4.285156 -13.472656 L 3.9375 -13.511719 L 2.953125 -13.511719 L 2.546875 -13.472656 L 2.007812 -13.492188 L 1.582031 -13.277344 L 1.46875 -12.929688 L 1.410156 -12.140625 L 1.46875 -11.5625 L 1.390625 -9.398438 L 1.429688 -9.070312 L 1.449219 -8.667969 L 1.410156 -8.320312 L 1.449219 -7.875 L 1.410156 -7.527344 L 1.390625 -7.160156 L 1.429688 -6.792969 L 1.390625 -6.351562 Z M 1.410156 -0.558594 "/></g></g></g><g fill="#ff893e" fill-opacity="1"><g transform="translate(98.016089, 73.487101)"><g><path d="M 7.738281 0.25 L 9.457031 0.078125 L 10.191406 -0.15625 L 11.910156 -0.925781 L 13.257812 -2.21875 L 13.511719 -2.566406 L 14.261719 -3.898438 L 14.398438 -4.265625 L 14.457031 -4.652344 L 14.570312 -4.960938 L 14.648438 -5.386719 L 14.746094 -6.734375 L 14.648438 -8.066406 L 14.496094 -8.78125 L 14.339844 -9.1875 L 14.242188 -9.632812 L 13.898438 -10.269531 L 13.761719 -10.617188 L 13.511719 -10.945312 L 13.277344 -11.175781 L 13.027344 -11.523438 L 12.199219 -12.273438 L 11.214844 -12.894531 L 8.683594 -13.683594 L 7.777344 -13.703125 L 6.425781 -13.625 L 6.042969 -13.550781 L 5.65625 -13.433594 L 5.308594 -13.277344 L 4.574219 -13.085938 L 3.589844 -12.46875 L 3.320312 -12.238281 L 2.703125 -11.8125 L 2.179688 -11.234375 L 1.523438 -10.269531 L 1.351562 -9.941406 L 0.984375 -8.878906 L 0.828125 -8.046875 L 0.753906 -5.808594 L 0.964844 -4.59375 L 1.253906 -3.9375 L 1.371094 -3.53125 L 1.5625 -3.183594 L 2.46875 -1.949219 L 3.011719 -1.429688 L 3.261719 -1.140625 L 4.574219 -0.445312 L 4.941406 -0.289062 L 6.582031 0.191406 Z M 7.199219 -3.144531 L 6.8125 -3.28125 L 6.464844 -3.320312 L 5.808594 -3.667969 L 5.210938 -4.1875 L 5.019531 -4.457031 L 4.765625 -4.730469 L 4.402344 -5.808594 L 4.304688 -6.773438 L 4.324219 -7.355469 L 4.457031 -8.066406 L 4.574219 -8.414062 L 4.804688 -8.683594 L 4.980469 -9.011719 L 5.230469 -9.324219 L 5.519531 -9.574219 L 6.078125 -9.960938 L 6.425781 -10.132812 L 6.832031 -10.230469 L 7.71875 -10.304688 L 8.648438 -10.25 L 9.667969 -9.804688 L 10.269531 -9.359375 L 10.710938 -8.703125 L 10.867188 -8.355469 L 10.980469 -7.972656 L 11.117188 -7.625 L 11.195312 -6.792969 L 11.078125 -5.828125 L 10.90625 -5.039062 L 10.691406 -4.746094 L 10.519531 -4.457031 L 10.289062 -4.109375 L 9.6875 -3.648438 L 9.339844 -3.492188 L 9.03125 -3.320312 L 8.683594 -3.28125 L 8.320312 -3.183594 Z M 7.199219 -3.144531 "/></g></g></g><g fill="#ff893e" fill-opacity="1"><g transform="translate(113.486705, 73.487101)"><g><path d="M 7.738281 0.25 L 9.457031 0.078125 L 10.191406 -0.15625 L 11.910156 -0.925781 L 13.257812 -2.21875 L 13.511719 -2.566406 L 14.261719 -3.898438 L 14.398438 -4.265625 L 14.457031 -4.652344 L 14.570312 -4.960938 L 14.648438 -5.386719 L 14.746094 -6.734375 L 14.648438 -8.066406 L 14.496094 -8.78125 L 14.339844 -9.1875 L 14.242188 -9.632812 L 13.898438 -10.269531 L 13.761719 -10.617188 L 13.511719 -10.945312 L 13.277344 -11.175781 L 13.027344 -11.523438 L 12.199219 -12.273438 L 11.214844 -12.894531 L 8.683594 -13.683594 L 7.777344 -13.703125 L 6.425781 -13.625 L 6.042969 -13.550781 L 5.65625 -13.433594 L 5.308594 -13.277344 L 4.574219 -13.085938 L 3.589844 -12.46875 L 3.320312 -12.238281 L 2.703125 -11.8125 L 2.179688 -11.234375 L 1.523438 -10.269531 L 1.351562 -9.941406 L 0.984375 -8.878906 L 0.828125 -8.046875 L 0.753906 -5.808594 L 0.964844 -4.59375 L 1.253906 -3.9375 L 1.371094 -3.53125 L 1.5625 -3.183594 L 2.46875 -1.949219 L 3.011719 -1.429688 L 3.261719 -1.140625 L 4.574219 -0.445312 L 4.941406 -0.289062 L 6.582031 0.191406 Z M 7.199219 -3.144531 L 6.8125 -3.28125 L 6.464844 -3.320312 L 5.808594 -3.667969 L 5.210938 -4.1875 L 5.019531 -4.457031 L 4.765625 -4.730469 L 4.402344 -5.808594 L 4.304688 -6.773438 L 4.324219 -7.355469 L 4.457031 -8.066406 L 4.574219 -8.414062 L 4.804688 -8.683594 L 4.980469 -9.011719 L 5.230469 -9.324219 L 5.519531 -9.574219 L 6.078125 -9.960938 L 6.425781 -10.132812 L 6.832031 -10.230469 L 7.71875 -10.304688 L 8.648438 -10.25 L 9.667969 -9.804688 L 10.269531 -9.359375 L 10.710938 -8.703125 L 10.867188 -8.355469 L 10.980469 -7.972656 L 11.117188 -7.625 L 11.195312 -6.792969 L 11.078125 -5.828125 L 10.90625 -5.039062 L 10.691406 -4.746094 L 10.519531 -4.457031 L 10.289062 -4.109375 L 9.6875 -3.648438 L 9.339844 -3.492188 L 9.03125 -3.320312 L 8.683594 -3.28125 L 8.320312 -3.183594 Z M 7.199219 -3.144531 "/></g></g></g><g fill="#ff893e" fill-opacity="1"><g transform="translate(128.95732, 73.487101)"><g><path d="M 5.945312 0.0585938 L 6.523438 0.0585938 L 7.121094 -0.0195312 L 7.507812 -0.0195312 L 8.066406 -0.191406 L 8.859375 -0.328125 L 9.765625 -0.714844 L 11.058594 -1.582031 L 12.003906 -2.796875 L 12.199219 -3.183594 L 12.429688 -3.492188 L 12.738281 -4.246094 L 12.835938 -4.613281 L 12.914062 -5.019531 L 13.027344 -5.347656 L 13.085938 -5.730469 L 13.085938 -6.136719 L 13.144531 -6.753906 L 13.125 -7.316406 L 12.855469 -8.839844 L 12.601562 -9.574219 L 12.449219 -9.941406 L 11.792969 -10.960938 L 10.769531 -12.101562 L 9.785156 -12.757812 L 9.417969 -12.96875 L 9.03125 -13.046875 L 8.703125 -13.203125 L 8.300781 -13.296875 L 7.160156 -13.472656 L 2.761719 -13.511719 L 2.414062 -13.453125 L 2.027344 -13.472656 L 1.601562 -13.296875 L 1.429688 -12.894531 L 1.410156 -2.105469 L 1.449219 -1.738281 L 1.449219 -0.753906 L 1.640625 -0.15625 L 2.027344 0.0390625 L 2.414062 0 L 4.765625 0.0390625 L 5.152344 -0.0195312 Z M 5.886719 -3.109375 L 5.519531 -3.144531 L 5.074219 -3.359375 L 4.921875 -3.726562 L 4.902344 -4.054688 L 4.921875 -4.84375 L 4.84375 -5.789062 L 4.921875 -6.753906 L 4.882812 -9.417969 L 4.921875 -9.746094 L 5.113281 -10.191406 L 5.730469 -10.324219 L 6.542969 -10.34375 L 7.101562 -10.289062 L 7.855469 -10.074219 L 8.203125 -9.902344 L 8.492188 -9.6875 L 8.78125 -9.417969 L 9.070312 -9.070312 L 9.265625 -8.742188 L 9.4375 -8.394531 L 9.746094 -6.699219 L 9.554688 -5.347656 L 9.226562 -4.632812 L 8.511719 -3.820312 L 7.855469 -3.398438 L 7.296875 -3.222656 L 6.464844 -3.125 Z M 5.886719 -3.109375 "/></g></g></g><g fill="#ff893e" fill-opacity="0.4"><g transform="translate(88.356088, 89.313624)"><g><path d="M 5.945312 0.0585938 L 6.523438 0.0585938 L 7.121094 -0.0195312 L 7.507812 -0.0195312 L 8.066406 -0.191406 L 8.859375 -0.328125 L 9.765625 -0.714844 L 11.058594 -1.582031 L 12.003906 -2.796875 L 12.199219 -3.183594 L 12.429688 -3.492188 L 12.738281 -4.246094 L 12.835938 -4.613281 L 12.914062 -5.019531 L 13.027344 -5.347656 L 13.085938 -5.730469 L 13.085938 -6.136719 L 13.144531 -6.753906 L 13.125 -7.316406 L 12.855469 -8.839844 L 12.601562 -9.574219 L 12.449219 -9.941406 L 11.792969 -10.960938 L 10.769531 -12.101562 L 9.785156 -12.757812 L 9.417969 -12.96875 L 9.03125 -13.046875 L 8.703125 -13.203125 L 8.300781 -13.296875 L 7.160156 -13.472656 L 2.761719 -13.511719 L 2.414062 -13.453125 L 2.027344 -13.472656 L 1.601562 -13.296875 L 1.429688 -12.894531 L 1.410156 -2.105469 L 1.449219 -1.738281 L 1.449219 -0.753906 L 1.640625 -0.15625 L 2.027344 0.0390625 L 2.414062 0 L 4.765625 0.0390625 L 5.152344 -0.0195312 Z M 5.886719 -3.109375 L 5.519531 -3.144531 L 5.074219 -3.359375 L 4.921875 -3.726562 L 4.902344 -4.054688 L 4.921875 -4.84375 L 4.84375 -5.789062 L 4.921875 -6.753906 L 4.882812 -9.417969 L 4.921875 -9.746094 L 5.113281 -10.191406 L 5.730469 -10.324219 L 6.542969 -10.34375 L 7.101562 -10.289062 L 7.855469 -10.074219 L 8.203125 -9.902344 L 8.492188 -9.6875 L 8.78125 -9.417969 L 9.070312 -9.070312 L 9.265625 -8.742188 L 9.4375 -8.394531 L 9.746094 -6.699219 L 9.554688 -5.347656 L 9.226562 -4.632812 L 8.511719 -3.820312 L 7.855469 -3.398438 L 7.296875 -3.222656 L 6.464844 -3.125 Z M 5.886719 -3.109375 "/></g></g></g><g fill="#ff893e" fill-opacity="0.4"><g transform="translate(102.379942, 89.313624)"><g><path d="M 6.714844 0.0585938 L 9.476562 0.0195312 L 9.882812 -0.15625 L 10.09375 -0.558594 L 10.09375 -2.507812 L 9.882812 -2.894531 L 9.476562 -3.070312 L 9.03125 -3.03125 L 8.667969 -3.089844 L 7.683594 -3.109375 L 7.042969 -3.03125 L 6.660156 -3.070312 L 6.234375 -3.050781 L 5.867188 -3.109375 L 5.441406 -3.070312 L 5.039062 -3.261719 L 4.882812 -3.609375 L 4.882812 -4.824219 L 5.058594 -5.230469 L 5.402344 -5.441406 L 5.984375 -5.460938 L 6.601562 -5.402344 L 7.335938 -5.441406 L 8.125 -5.421875 L 8.511719 -5.460938 L 8.957031 -5.441406 L 9.339844 -5.597656 L 9.476562 -5.984375 L 9.535156 -7.71875 L 9.339844 -8.261719 L 8.898438 -8.511719 L 7.757812 -8.511719 L 7.355469 -8.472656 L 6.542969 -8.53125 L 5.421875 -8.492188 L 5.019531 -8.667969 L 4.863281 -9.265625 L 4.863281 -9.863281 L 5.039062 -10.230469 L 5.460938 -10.382812 L 5.828125 -10.363281 L 6.195312 -10.441406 L 8.957031 -10.402344 L 9.324219 -10.421875 L 9.726562 -10.652344 L 9.921875 -11 L 9.902344 -11.386719 L 9.921875 -11.773438 L 9.882812 -12.929688 L 9.707031 -13.296875 L 9.324219 -13.453125 L 8.917969 -13.453125 L 8.570312 -13.53125 L 7.007812 -13.511719 L 6.582031 -13.472656 L 6.195312 -13.511719 L 5.867188 -13.492188 L 5.480469 -13.53125 L 3.898438 -13.492188 L 3.511719 -13.550781 L 3.144531 -13.472656 L 2.796875 -13.511719 L 2.414062 -13.472656 L 2.027344 -13.492188 L 1.621094 -13.335938 L 1.410156 -12.929688 L 1.449219 -12.199219 L 1.390625 -11.40625 L 1.449219 -10.980469 L 1.410156 -9.089844 L 1.46875 -8.683594 L 1.429688 -8.320312 L 1.410156 -6.734375 L 1.46875 -6.386719 L 1.449219 -3.261719 L 1.410156 -2.894531 L 1.46875 -2.507812 L 1.410156 -1.175781 L 1.449219 -0.753906 L 1.601562 -0.230469 L 2.179688 0.0195312 L 3.570312 0.0390625 L 3.996094 0 L 4.34375 0.0195312 L 5.132812 -0.0390625 L 5.5 0.0390625 L 5.945312 0.0585938 L 6.332031 0.0195312 Z M 6.714844 0.0585938 "/></g></g></g><g fill="#ff893e" fill-opacity="0.4"><g transform="translate(113.433131, 89.313624)"><g><path d="M 1.46875 -0.695312 L 1.601562 -0.191406 L 1.96875 0 L 2.355469 0.0390625 L 3.164062 -0.0195312 L 3.917969 0.0195312 L 4.652344 -0.0195312 L 5.019531 0.0390625 L 5.441406 0 L 9.265625 0.0195312 L 9.632812 -0.171875 L 9.84375 -0.773438 L 9.824219 -2.335938 L 9.648438 -2.914062 L 9.304688 -3.144531 L 8.898438 -3.109375 L 8.53125 -3.03125 L 8.125 -3.089844 L 7.335938 -3.070312 L 6.949219 -3.144531 L 6.601562 -3.089844 L 5.847656 -3.125 L 5.441406 -3.089844 L 5.058594 -3.242188 L 4.902344 -3.628906 L 4.921875 -10.171875 L 4.882812 -10.632812 L 4.921875 -11.40625 L 4.863281 -12.507812 L 4.882812 -12.875 L 4.691406 -13.296875 L 4.304688 -13.53125 L 3.550781 -13.53125 L 3.164062 -13.453125 L 2.394531 -13.53125 L 2.027344 -13.472656 L 1.621094 -13.316406 L 1.449219 -12.894531 L 1.449219 -10.191406 L 1.410156 -9.824219 L 1.449219 -9.4375 L 1.390625 -8.722656 L 1.410156 -8.300781 L 1.449219 -7.933594 Z M 1.46875 -0.695312 "/></g></g></g><g fill="#ff893e" fill-opacity="0.4"><g transform="translate(123.811172, 89.313624)"><g><path d="M 6.464844 0.078125 L 7.238281 0.0390625 L 7.585938 -0.15625 L 7.777344 -0.519531 L 7.777344 -2.433594 L 7.546875 -2.796875 L 7.121094 -3.011719 L 6.714844 -3.011719 L 6.253906 -3.164062 L 6.023438 -3.609375 L 6.078125 -3.976562 L 6.058594 -6.097656 L 6.097656 -6.523438 L 6.023438 -7.914062 L 6.097656 -9.863281 L 6.234375 -10.304688 L 6.660156 -10.480469 L 7.042969 -10.539062 L 7.449219 -10.691406 L 7.644531 -11 L 7.664062 -12.914062 L 7.429688 -13.277344 L 7.082031 -13.492188 L 4.746094 -13.492188 L 4.402344 -13.53125 L 4.015625 -13.453125 L 2.433594 -13.453125 L 2.066406 -13.511719 L 1.621094 -13.511719 L 1.234375 -13.316406 L 1.042969 -12.855469 L 1.101562 -11.425781 L 1.0625 -11.058594 L 1.273438 -10.671875 L 1.699219 -10.460938 L 2.085938 -10.460938 L 2.453125 -10.230469 L 2.625 -9.707031 L 2.683594 -3.78125 L 2.46875 -3.203125 L 1.195312 -2.816406 L 0.984375 -2.46875 L 0.925781 -0.695312 L 1.121094 -0.171875 L 1.503906 0 L 1.871094 0 L 2.238281 -0.0390625 L 2.796875 0.0390625 L 3.398438 0.0195312 L 3.78125 -0.0195312 L 4.554688 0.0585938 L 5.132812 -0.0195312 L 6.078125 -0.0195312 Z M 6.464844 0.078125 "/></g></g></g><g fill="#ff893e" fill-opacity="0.4"><g transform="translate(132.568844, 89.313624)"><g><path d="M 6.640625 0.171875 L 7.101562 0.0195312 L 7.527344 -0.539062 L 7.777344 -1.082031 L 7.894531 -1.484375 L 8.261719 -2.105469 L 8.375 -2.488281 L 8.570312 -2.894531 L 8.683594 -3.222656 L 8.898438 -3.570312 L 9.648438 -5.328125 L 9.785156 -5.75 L 10.132812 -6.371094 L 11.8125 -10.34375 L 12.003906 -10.691406 L 12.332031 -11.386719 L 12.429688 -11.753906 L 12.796875 -12.429688 L 12.929688 -12.949219 L 12.835938 -13.355469 L 12.488281 -13.433594 L 12.082031 -13.472656 L 11.734375 -13.53125 L 11.367188 -13.492188 L 10.980469 -13.472656 L 10.25 -13.550781 L 9.824219 -13.296875 L 9.496094 -12.96875 L 7.699219 -8.722656 L 7.585938 -8.320312 L 7.410156 -7.992188 L 7.335938 -7.644531 L 7.140625 -7.296875 L 6.753906 -6.214844 L 6.5625 -5.867188 L 6.351562 -5.90625 L 5.867188 -6.949219 L 5.789062 -7.316406 L 5.460938 -7.972656 L 4.496094 -10.480469 L 3.996094 -11.503906 L 3.453125 -12.96875 L 3.125 -13.296875 L 2.683594 -13.492188 L 1.582031 -13.53125 L 1.195312 -13.472656 L 0.464844 -13.472656 L 0.15625 -13.335938 L 0 -12.949219 L 0.617188 -11.308594 L 0.8125 -11.019531 L 0.90625 -10.652344 L 1.0625 -10.269531 L 1.273438 -9.976562 L 1.410156 -9.574219 L 3.144531 -5.675781 L 3.261719 -5.289062 L 3.746094 -4.285156 L 3.878906 -3.878906 L 4.207031 -3.222656 L 4.417969 -2.875 L 4.515625 -2.488281 L 5.289062 -0.65625 L 5.460938 -0.367188 L 5.847656 -0.0390625 L 6.273438 0.117188 Z M 6.640625 0.171875 "/></g></g></g><g fill="#ff893e" fill-opacity="0.4"><g transform="translate(145.570334, 89.313624)"><g><path d="M 6.714844 0.0585938 L 9.476562 0.0195312 L 9.882812 -0.15625 L 10.09375 -0.558594 L 10.09375 -2.507812 L 9.882812 -2.894531 L 9.476562 -3.070312 L 9.03125 -3.03125 L 8.667969 -3.089844 L 7.683594 -3.109375 L 7.042969 -3.03125 L 6.660156 -3.070312 L 6.234375 -3.050781 L 5.867188 -3.109375 L 5.441406 -3.070312 L 5.039062 -3.261719 L 4.882812 -3.609375 L 4.882812 -4.824219 L 5.058594 -5.230469 L 5.402344 -5.441406 L 5.984375 -5.460938 L 6.601562 -5.402344 L 7.335938 -5.441406 L 8.125 -5.421875 L 8.511719 -5.460938 L 8.957031 -5.441406 L 9.339844 -5.597656 L 9.476562 -5.984375 L 9.535156 -7.71875 L 9.339844 -8.261719 L 8.898438 -8.511719 L 7.757812 -8.511719 L 7.355469 -8.472656 L 6.542969 -8.53125 L 5.421875 -8.492188 L 5.019531 -8.667969 L 4.863281 -9.265625 L 4.863281 -9.863281 L 5.039062 -10.230469 L 5.460938 -10.382812 L 5.828125 -10.363281 L 6.195312 -10.441406 L 8.957031 -10.402344 L 9.324219 -10.421875 L 9.726562 -10.652344 L 9.921875 -11 L 9.902344 -11.386719 L 9.921875 -11.773438 L 9.882812 -12.929688 L 9.707031 -13.296875 L 9.324219 -13.453125 L 8.917969 -13.453125 L 8.570312 -13.53125 L 7.007812 -13.511719 L 6.582031 -13.472656 L 6.195312 -13.511719 L 5.867188 -13.492188 L 5.480469 -13.53125 L 3.898438 -13.492188 L 3.511719 -13.550781 L 3.144531 -13.472656 L 2.796875 -13.511719 L 2.414062 -13.472656 L 2.027344 -13.492188 L 1.621094 -13.335938 L 1.410156 -12.929688 L 1.449219 -12.199219 L 1.390625 -11.40625 L 1.449219 -10.980469 L 1.410156 -9.089844 L 1.46875 -8.683594 L 1.429688 -8.320312 L 1.410156 -6.734375 L 1.46875 -6.386719 L 1.449219 -3.261719 L 1.410156 -2.894531 L 1.46875 -2.507812 L 1.410156 -1.175781 L 1.449219 -0.753906 L 1.601562 -0.230469 L 2.179688 0.0195312 L 3.570312 0.0390625 L 3.996094 0 L 4.34375 0.0195312 L 5.132812 -0.0390625 L 5.5 0.0390625 L 5.945312 0.0585938 L 6.332031 0.0195312 Z M 6.714844 0.0585938 "/></g></g></g><g fill="#ff893e" fill-opacity="0.4"><g transform="translate(156.623523, 89.313624)"><g><path d="M 1.449219 -0.792969 L 1.640625 -0.191406 L 2.199219 0.0585938 L 2.585938 0 L 3.203125 0.0585938 L 3.511719 0.0195312 L 4.089844 0.0195312 L 4.710938 -0.171875 L 4.882812 -0.734375 L 4.882812 -1.390625 L 4.921875 -1.738281 L 4.863281 -2.140625 L 4.902344 -3.378906 L 5.074219 -3.761719 L 5.441406 -3.976562 L 6.5625 -3.820312 L 6.949219 -3.492188 L 7.179688 -3.109375 L 7.335938 -2.761719 L 7.738281 -2.179688 L 8.105469 -1.484375 L 8.320312 -1.195312 L 8.472656 -0.8125 L 8.683594 -0.484375 L 9.109375 -0.136719 L 9.765625 0.0390625 L 11.289062 0.0195312 L 11.65625 0.0585938 L 12.292969 0.0390625 L 12.660156 -0.136719 L 12.777344 -0.558594 L 12.566406 -0.984375 L 12.332031 -1.253906 L 12.179688 -1.621094 L 11.523438 -2.605469 L 11.347656 -2.953125 L 10.730469 -3.957031 L 10.5 -4.246094 L 10.480469 -4.710938 L 10.652344 -5.132812 L 10.925781 -5.421875 L 11.195312 -5.65625 L 11.945312 -7.007812 L 12.199219 -8.125 L 12.160156 -9.339844 L 12.101562 -9.726562 L 11.753906 -10.828125 L 11.601562 -11.15625 L 11.386719 -11.464844 L 10.289062 -12.621094 L 9.613281 -12.988281 L 8.878906 -13.242188 L 7.777344 -13.492188 L 7.160156 -13.511719 L 6.601562 -13.472656 L 5.441406 -13.472656 L 5.058594 -13.550781 L 4.671875 -13.550781 L 4.324219 -13.453125 L 3.9375 -13.453125 L 3.550781 -13.53125 L 3.125 -13.550781 L 1.988281 -13.453125 L 1.640625 -13.257812 L 1.410156 -12.71875 L 1.429688 -8.300781 L 1.46875 -7.914062 L 1.410156 -7.140625 L 1.429688 -6.714844 L 1.429688 -6.332031 L 1.46875 -5.964844 L 1.429688 -5.597656 L 1.410156 -4.035156 L 1.449219 -3.648438 Z M 5.441406 -7.0625 L 5.058594 -7.277344 L 4.902344 -7.585938 L 4.902344 -8.742188 L 4.863281 -9.070312 L 4.902344 -9.882812 L 5.074219 -10.25 L 5.480469 -10.402344 L 5.867188 -10.382812 L 6.640625 -10.460938 L 7.179688 -10.34375 L 7.683594 -10.304688 L 8.046875 -10.210938 L 8.53125 -9.613281 L 8.648438 -9.304688 L 8.722656 -8.800781 L 8.667969 -8.222656 L 8.492188 -7.835938 L 8.28125 -7.546875 L 8.066406 -7.371094 L 7.71875 -7.21875 L 7.160156 -7.082031 L 6.792969 -7.0625 L 5.867188 -7.101562 Z M 5.441406 -7.0625 "/></g></g></g><g fill="#ff893e" fill-opacity="0.4"><g transform="translate(170.010807, 89.313624)"><g><path d="M 4.417969 -0.578125 L 4.574219 -0.15625 L 4.980469 0 L 5.367188 0.0195312 L 5.714844 -0.0195312 L 6.3125 0.0195312 L 6.851562 -0.0195312 L 7.238281 0.0195312 L 7.625 -0.191406 L 7.777344 -0.597656 L 7.835938 -2.835938 L 7.796875 -3.222656 L 7.796875 -3.609375 L 7.855469 -3.957031 L 7.835938 -5.074219 L 7.953125 -5.636719 L 8.144531 -6.136719 L 10.597656 -10.171875 L 10.828125 -10.441406 L 12.0625 -12.488281 L 12.273438 -12.96875 L 12.199219 -13.394531 L 11.851562 -13.472656 L 11.097656 -13.492188 L 10.691406 -13.453125 L 10.304688 -13.511719 L 9.554688 -13.492188 L 9.226562 -13.511719 L 8.703125 -13.316406 L 8.355469 -12.988281 L 7.855469 -12.160156 L 7.625 -11.582031 L 7.199219 -10.960938 L 7.007812 -10.558594 L 6.8125 -10.230469 L 6.484375 -9.496094 L 6.234375 -9.167969 L 6.023438 -9.167969 L 5.808594 -9.535156 L 5.597656 -9.84375 L 5.019531 -10.925781 L 4.804688 -11.253906 L 3.898438 -12.949219 L 3.492188 -13.316406 L 3.050781 -13.492188 L 2.644531 -13.472656 L 2.316406 -13.550781 L 1.332031 -13.472656 L 0.445312 -13.53125 L 0.0585938 -13.335938 L 0 -12.914062 L 0.191406 -12.46875 L 1.023438 -11.097656 L 1.234375 -10.828125 L 2.027344 -9.457031 L 2.488281 -8.839844 L 2.644531 -8.492188 L 4.128906 -6.136719 L 4.324219 -5.597656 L 4.417969 -5.074219 L 4.402344 -3.550781 L 4.4375 -3.164062 L 4.402344 -1.679688 L 4.4375 -1.3125 Z M 4.417969 -0.578125 "/></g></g></g><g fill="#ff893e" fill-opacity="1"><g transform="translate(87.503019, 88.46055)"><g><path d="M 5.945312 0.0585938 L 6.523438 0.0585938 L 7.121094 -0.0195312 L 7.507812 -0.0195312 L 8.066406 -0.191406 L 8.859375 -0.328125 L 9.765625 -0.714844 L 11.058594 -1.582031 L 12.003906 -2.796875 L 12.199219 -3.183594 L 12.429688 -3.492188 L 12.738281 -4.246094 L 12.835938 -4.613281 L 12.914062 -5.019531 L 13.027344 -5.347656 L 13.085938 -5.730469 L 13.085938 -6.136719 L 13.144531 -6.753906 L 13.125 -7.316406 L 12.855469 -8.839844 L 12.601562 -9.574219 L 12.449219 -9.941406 L 11.792969 -10.960938 L 10.769531 -12.101562 L 9.785156 -12.757812 L 9.417969 -12.96875 L 9.03125 -13.046875 L 8.703125 -13.203125 L 8.300781 -13.296875 L 7.160156 -13.472656 L 2.761719 -13.511719 L 2.414062 -13.453125 L 2.027344 -13.472656 L 1.601562 -13.296875 L 1.429688 -12.894531 L 1.410156 -2.105469 L 1.449219 -1.738281 L 1.449219 -0.753906 L 1.640625 -0.15625 L 2.027344 0.0390625 L 2.414062 0 L 4.765625 0.0390625 L 5.152344 -0.0195312 Z M 5.886719 -3.109375 L 5.519531 -3.144531 L 5.074219 -3.359375 L 4.921875 -3.726562 L 4.902344 -4.054688 L 4.921875 -4.84375 L 4.84375 -5.789062 L 4.921875 -6.753906 L 4.882812 -9.417969 L 4.921875 -9.746094 L 5.113281 -10.191406 L 5.730469 -10.324219 L 6.542969 -10.34375 L 7.101562 -10.289062 L 7.855469 -10.074219 L 8.203125 -9.902344 L 8.492188 -9.6875 L 8.78125 -9.417969 L 9.070312 -9.070312 L 9.265625 -8.742188 L 9.4375 -8.394531 L 9.746094 -6.699219 L 9.554688 -5.347656 L 9.226562 -4.632812 L 8.511719 -3.820312 L 7.855469 -3.398438 L 7.296875 -3.222656 L 6.464844 -3.125 Z M 5.886719 -3.109375 "/></g></g></g><g fill="#ff893e" fill-opacity="1"><g transform="translate(101.526874, 88.46055)"><g><path d="M 6.714844 0.0585938 L 9.476562 0.0195312 L 9.882812 -0.15625 L 10.09375 -0.558594 L 10.09375 -2.507812 L 9.882812 -2.894531 L 9.476562 -3.070312 L 9.03125 -3.03125 L 8.667969 -3.089844 L 7.683594 -3.109375 L 7.042969 -3.03125 L 6.660156 -3.070312 L 6.234375 -3.050781 L 5.867188 -3.109375 L 5.441406 -3.070312 L 5.039062 -3.261719 L 4.882812 -3.609375 L 4.882812 -4.824219 L 5.058594 -5.230469 L 5.402344 -5.441406 L 5.984375 -5.460938 L 6.601562 -5.402344 L 7.335938 -5.441406 L 8.125 -5.421875 L 8.511719 -5.460938 L 8.957031 -5.441406 L 9.339844 -5.597656 L 9.476562 -5.984375 L 9.535156 -7.71875 L 9.339844 -8.261719 L 8.898438 -8.511719 L 7.757812 -8.511719 L 7.355469 -8.472656 L 6.542969 -8.53125 L 5.421875 -8.492188 L 5.019531 -8.667969 L 4.863281 -9.265625 L 4.863281 -9.863281 L 5.039062 -10.230469 L 5.460938 -10.382812 L 5.828125 -10.363281 L 6.195312 -10.441406 L 8.957031 -10.402344 L 9.324219 -10.421875 L 9.726562 -10.652344 L 9.921875 -11 L 9.902344 -11.386719 L 9.921875 -11.773438 L 9.882812 -12.929688 L 9.707031 -13.296875 L 9.324219 -13.453125 L 8.917969 -13.453125 L 8.570312 -13.53125 L 7.007812 -13.511719 L 6.582031 -13.472656 L 6.195312 -13.511719 L 5.867188 -13.492188 L 5.480469 -13.53125 L 3.898438 -13.492188 L 3.511719 -13.550781 L 3.144531 -13.472656 L 2.796875 -13.511719 L 2.414062 -13.472656 L 2.027344 -13.492188 L 1.621094 -13.335938 L 1.410156 -12.929688 L 1.449219 -12.199219 L 1.390625 -11.40625 L 1.449219 -10.980469 L 1.410156 -9.089844 L 1.46875 -8.683594 L 1.429688 -8.320312 L 1.410156 -6.734375 L 1.46875 -6.386719 L 1.449219 -3.261719 L 1.410156 -2.894531 L 1.46875 -2.507812 L 1.410156 -1.175781 L 1.449219 -0.753906 L 1.601562 -0.230469 L 2.179688 0.0195312 L 3.570312 0.0390625 L 3.996094 0 L 4.34375 0.0195312 L 5.132812 -0.0390625 L 5.5 0.0390625 L 5.945312 0.0585938 L 6.332031 0.0195312 Z M 6.714844 0.0585938 "/></g></g></g><g fill="#ff893e" fill-opacity="1"><g transform="translate(112.580063, 88.46055)"><g><path d="M 1.46875 -0.695312 L 1.601562 -0.191406 L 1.96875 0 L 2.355469 0.0390625 L 3.164062 -0.0195312 L 3.917969 0.0195312 L 4.652344 -0.0195312 L 5.019531 0.0390625 L 5.441406 0 L 9.265625 0.0195312 L 9.632812 -0.171875 L 9.84375 -0.773438 L 9.824219 -2.335938 L 9.648438 -2.914062 L 9.304688 -3.144531 L 8.898438 -3.109375 L 8.53125 -3.03125 L 8.125 -3.089844 L 7.335938 -3.070312 L 6.949219 -3.144531 L 6.601562 -3.089844 L 5.847656 -3.125 L 5.441406 -3.089844 L 5.058594 -3.242188 L 4.902344 -3.628906 L 4.921875 -10.171875 L 4.882812 -10.632812 L 4.921875 -11.40625 L 4.863281 -12.507812 L 4.882812 -12.875 L 4.691406 -13.296875 L 4.304688 -13.53125 L 3.550781 -13.53125 L 3.164062 -13.453125 L 2.394531 -13.53125 L 2.027344 -13.472656 L 1.621094 -13.316406 L 1.449219 -12.894531 L 1.449219 -10.191406 L 1.410156 -9.824219 L 1.449219 -9.4375 L 1.390625 -8.722656 L 1.410156 -8.300781 L 1.449219 -7.933594 Z M 1.46875 -0.695312 "/></g></g></g><g fill="#ff893e" fill-opacity="1"><g transform="translate(122.958103, 88.46055)"><g><path d="M 6.464844 0.078125 L 7.238281 0.0390625 L 7.585938 -0.15625 L 7.777344 -0.519531 L 7.777344 -2.433594 L 7.546875 -2.796875 L 7.121094 -3.011719 L 6.714844 -3.011719 L 6.253906 -3.164062 L 6.023438 -3.609375 L 6.078125 -3.976562 L 6.058594 -6.097656 L 6.097656 -6.523438 L 6.023438 -7.914062 L 6.097656 -9.863281 L 6.234375 -10.304688 L 6.660156 -10.480469 L 7.042969 -10.539062 L 7.449219 -10.691406 L 7.644531 -11 L 7.664062 -12.914062 L 7.429688 -13.277344 L 7.082031 -13.492188 L 4.746094 -13.492188 L 4.402344 -13.53125 L 4.015625 -13.453125 L 2.433594 -13.453125 L 2.066406 -13.511719 L 1.621094 -13.511719 L 1.234375 -13.316406 L 1.042969 -12.855469 L 1.101562 -11.425781 L 1.0625 -11.058594 L 1.273438 -10.671875 L 1.699219 -10.460938 L 2.085938 -10.460938 L 2.453125 -10.230469 L 2.625 -9.707031 L 2.683594 -3.78125 L 2.46875 -3.203125 L 1.195312 -2.816406 L 0.984375 -2.46875 L 0.925781 -0.695312 L 1.121094 -0.171875 L 1.503906 0 L 1.871094 0 L 2.238281 -0.0390625 L 2.796875 0.0390625 L 3.398438 0.0195312 L 3.78125 -0.0195312 L 4.554688 0.0585938 L 5.132812 -0.0195312 L 6.078125 -0.0195312 Z M 6.464844 0.078125 "/></g></g></g><g fill="#ff893e" fill-opacity="1"><g transform="translate(131.715775, 88.46055)"><g><path d="M 6.640625 0.171875 L 7.101562 0.0195312 L 7.527344 -0.539062 L 7.777344 -1.082031 L 7.894531 -1.484375 L 8.261719 -2.105469 L 8.375 -2.488281 L 8.570312 -2.894531 L 8.683594 -3.222656 L 8.898438 -3.570312 L 9.648438 -5.328125 L 9.785156 -5.75 L 10.132812 -6.371094 L 11.8125 -10.34375 L 12.003906 -10.691406 L 12.332031 -11.386719 L 12.429688 -11.753906 L 12.796875 -12.429688 L 12.929688 -12.949219 L 12.835938 -13.355469 L 12.488281 -13.433594 L 12.082031 -13.472656 L 11.734375 -13.53125 L 11.367188 -13.492188 L 10.980469 -13.472656 L 10.25 -13.550781 L 9.824219 -13.296875 L 9.496094 -12.96875 L 7.699219 -8.722656 L 7.585938 -8.320312 L 7.410156 -7.992188 L 7.335938 -7.644531 L 7.140625 -7.296875 L 6.753906 -6.214844 L 6.5625 -5.867188 L 6.351562 -5.90625 L 5.867188 -6.949219 L 5.789062 -7.316406 L 5.460938 -7.972656 L 4.496094 -10.480469 L 3.996094 -11.503906 L 3.453125 -12.96875 L 3.125 -13.296875 L 2.683594 -13.492188 L 1.582031 -13.53125 L 1.195312 -13.472656 L 0.464844 -13.472656 L 0.15625 -13.335938 L 0 -12.949219 L 0.617188 -11.308594 L 0.8125 -11.019531 L 0.90625 -10.652344 L 1.0625 -10.269531 L 1.273438 -9.976562 L 1.410156 -9.574219 L 3.144531 -5.675781 L 3.261719 -5.289062 L 3.746094 -4.285156 L 3.878906 -3.878906 L 4.207031 -3.222656 L 4.417969 -2.875 L 4.515625 -2.488281 L 5.289062 -0.65625 L 5.460938 -0.367188 L 5.847656 -0.0390625 L 6.273438 0.117188 Z M 6.640625 0.171875 "/></g></g></g><g fill="#ff893e" fill-opacity="1"><g transform="translate(144.717265, 88.46055)"><g><path d="M 6.714844 0.0585938 L 9.476562 0.0195312 L 9.882812 -0.15625 L 10.09375 -0.558594 L 10.09375 -2.507812 L 9.882812 -2.894531 L 9.476562 -3.070312 L 9.03125 -3.03125 L 8.667969 -3.089844 L 7.683594 -3.109375 L 7.042969 -3.03125 L 6.660156 -3.070312 L 6.234375 -3.050781 L 5.867188 -3.109375 L 5.441406 -3.070312 L 5.039062 -3.261719 L 4.882812 -3.609375 L 4.882812 -4.824219 L 5.058594 -5.230469 L 5.402344 -5.441406 L 5.984375 -5.460938 L 6.601562 -5.402344 L 7.335938 -5.441406 L 8.125 -5.421875 L 8.511719 -5.460938 L 8.957031 -5.441406 L 9.339844 -5.597656 L 9.476562 -5.984375 L 9.535156 -7.71875 L 9.339844 -8.261719 L 8.898438 -8.511719 L 7.757812 -8.511719 L 7.355469 -8.472656 L 6.542969 -8.53125 L 5.421875 -8.492188 L 5.019531 -8.667969 L 4.863281 -9.265625 L 4.863281 -9.863281 L 5.039062 -10.230469 L 5.460938 -10.382812 L 5.828125 -10.363281 L 6.195312 -10.441406 L 8.957031 -10.402344 L 9.324219 -10.421875 L 9.726562 -10.652344 L 9.921875 -11 L 9.902344 -11.386719 L 9.921875 -11.773438 L 9.882812 -12.929688 L 9.707031 -13.296875 L 9.324219 -13.453125 L 8.917969 -13.453125 L 8.570312 -13.53125 L 7.007812 -13.511719 L 6.582031 -13.472656 L 6.195312 -13.511719 L 5.867188 -13.492188 L 5.480469 -13.53125 L 3.898438 -13.492188 L 3.511719 -13.550781 L 3.144531 -13.472656 L 2.796875 -13.511719 L 2.414062 -13.472656 L 2.027344 -13.492188 L 1.621094 -13.335938 L 1.410156 -12.929688 L 1.449219 -12.199219 L 1.390625 -11.40625 L 1.449219 -10.980469 L 1.410156 -9.089844 L 1.46875 -8.683594 L 1.429688 -8.320312 L 1.410156 -6.734375 L 1.46875 -6.386719 L 1.449219 -3.261719 L 1.410156 -2.894531 L 1.46875 -2.507812 L 1.410156 -1.175781 L 1.449219 -0.753906 L 1.601562 -0.230469 L 2.179688 0.0195312 L 3.570312 0.0390625 L 3.996094 0 L 4.34375 0.0195312 L 5.132812 -0.0390625 L 5.5 0.0390625 L 5.945312 0.0585938 L 6.332031 0.0195312 Z M 6.714844 0.0585938 "/></g></g></g><g fill="#ff893e" fill-opacity="1"><g transform="translate(155.770454, 88.46055)"><g><path d="M 1.449219 -0.792969 L 1.640625 -0.191406 L 2.199219 0.0585938 L 2.585938 0 L 3.203125 0.0585938 L 3.511719 0.0195312 L 4.089844 0.0195312 L 4.710938 -0.171875 L 4.882812 -0.734375 L 4.882812 -1.390625 L 4.921875 -1.738281 L 4.863281 -2.140625 L 4.902344 -3.378906 L 5.074219 -3.761719 L 5.441406 -3.976562 L 6.5625 -3.820312 L 6.949219 -3.492188 L 7.179688 -3.109375 L 7.335938 -2.761719 L 7.738281 -2.179688 L 8.105469 -1.484375 L 8.320312 -1.195312 L 8.472656 -0.8125 L 8.683594 -0.484375 L 9.109375 -0.136719 L 9.765625 0.0390625 L 11.289062 0.0195312 L 11.65625 0.0585938 L 12.292969 0.0390625 L 12.660156 -0.136719 L 12.777344 -0.558594 L 12.566406 -0.984375 L 12.332031 -1.253906 L 12.179688 -1.621094 L 11.523438 -2.605469 L 11.347656 -2.953125 L 10.730469 -3.957031 L 10.5 -4.246094 L 10.480469 -4.710938 L 10.652344 -5.132812 L 10.925781 -5.421875 L 11.195312 -5.65625 L 11.945312 -7.007812 L 12.199219 -8.125 L 12.160156 -9.339844 L 12.101562 -9.726562 L 11.753906 -10.828125 L 11.601562 -11.15625 L 11.386719 -11.464844 L 10.289062 -12.621094 L 9.613281 -12.988281 L 8.878906 -13.242188 L 7.777344 -13.492188 L 7.160156 -13.511719 L 6.601562 -13.472656 L 5.441406 -13.472656 L 5.058594 -13.550781 L 4.671875 -13.550781 L 4.324219 -13.453125 L 3.9375 -13.453125 L 3.550781 -13.53125 L 3.125 -13.550781 L 1.988281 -13.453125 L 1.640625 -13.257812 L 1.410156 -12.71875 L 1.429688 -8.300781 L 1.46875 -7.914062 L 1.410156 -7.140625 L 1.429688 -6.714844 L 1.429688 -6.332031 L 1.46875 -5.964844 L 1.429688 -5.597656 L 1.410156 -4.035156 L 1.449219 -3.648438 Z M 5.441406 -7.0625 L 5.058594 -7.277344 L 4.902344 -7.585938 L 4.902344 -8.742188 L 4.863281 -9.070312 L 4.902344 -9.882812 L 5.074219 -10.25 L 5.480469 -10.402344 L 5.867188 -10.382812 L 6.640625 -10.460938 L 7.179688 -10.34375 L 7.683594 -10.304688 L 8.046875 -10.210938 L 8.53125 -9.613281 L 8.648438 -9.304688 L 8.722656 -8.800781 L 8.667969 -8.222656 L 8.492188 -7.835938 L 8.28125 -7.546875 L 8.066406 -7.371094 L 7.71875 -7.21875 L 7.160156 -7.082031 L 6.792969 -7.0625 L 5.867188 -7.101562 Z M 5.441406 -7.0625 "/></g></g></g><g fill="#ff893e" fill-opacity="1"><g transform="translate(169.157739, 88.46055)"><g><path d="M 4.417969 -0.578125 L 4.574219 -0.15625 L 4.980469 0 L 5.367188 0.0195312 L 5.714844 -0.0195312 L 6.3125 0.0195312 L 6.851562 -0.0195312 L 7.238281 0.0195312 L 7.625 -0.191406 L 7.777344 -0.597656 L 7.835938 -2.835938 L 7.796875 -3.222656 L 7.796875 -3.609375 L 7.855469 -3.957031 L 7.835938 -5.074219 L 7.953125 -5.636719 L 8.144531 -6.136719 L 10.597656 -10.171875 L 10.828125 -10.441406 L 12.0625 -12.488281 L 12.273438 -12.96875 L 12.199219 -13.394531 L 11.851562 -13.472656 L 11.097656 -13.492188 L 10.691406 -13.453125 L 10.304688 -13.511719 L 9.554688 -13.492188 L 9.226562 -13.511719 L 8.703125 -13.316406 L 8.355469 -12.988281 L 7.855469 -12.160156 L 7.625 -11.582031 L 7.199219 -10.960938 L 7.007812 -10.558594 L 6.8125 -10.230469 L 6.484375 -9.496094 L 6.234375 -9.167969 L 6.023438 -9.167969 L 5.808594 -9.535156 L 5.597656 -9.84375 L 5.019531 -10.925781 L 4.804688 -11.253906 L 3.898438 -12.949219 L 3.492188 -13.316406 L 3.050781 -13.492188 L 2.644531 -13.472656 L 2.316406 -13.550781 L 1.332031 -13.472656 L 0.445312 -13.53125 L 0.0585938 -13.335938 L 0 -12.914062 L 0.191406 -12.46875 L 1.023438 -11.097656 L 1.234375 -10.828125 L 2.027344 -9.457031 L 2.488281 -8.839844 L 2.644531 -8.492188 L 4.128906 -6.136719 L 4.324219 -5.597656 L 4.417969 -5.074219 L 4.402344 -3.550781 L 4.4375 -3.164062 L 4.402344 -1.679688 L 4.4375 -1.3125 Z M 4.417969 -0.578125 "/></g></g></g></svg>